<svg width="146" height="112" viewBox="0 0 146 112" fill="none" xmlns="http://www.w3.org/2000/svg">
<path d="M95.9813 1.46722L142.74 29.8429C145.12 31.2869 145.333 34.6594 143.155 36.3925L130.609 46.3761C127.745 48.6548 129.192 53.2642 132.844 53.4979L136.773 53.7493C140.755 54.0041 141.95 59.2912 138.466 61.2345L112.339 75.8075C111.534 76.2564 110.909 76.9695 110.569 77.8262L107.428 85.747C107.177 86.3793 106.769 86.9373 106.243 87.368L97.976 94.1329C96.8907 95.0211 95.2929 94.0462 95.5861 92.6748C95.8144 91.6071 94.8501 90.667 93.7886 90.9224L8.8318 111.365C4.45524 112.418 1.94433 106.559 5.7252 104.116L50.3475 75.2834C51.0544 74.8267 50.8719 73.7459 50.0543 73.5465C49.4355 73.3956 49.1332 72.6944 49.4481 72.1408L49.62 71.8386C50.0267 71.1238 49.6248 70.2194 48.8217 70.0423L3.77878 60.1054C3.28985 59.9975 2.82982 59.7858 2.42988 59.4846C-0.0999506 57.5792 1.00862 53.5606 4.15755 53.2218L40.1863 49.345C44.1296 48.9207 45.1177 43.6339 41.5939 41.814L35.4969 38.6651C31.7468 36.7282 33.1641 31.0564 37.3845 31.1114L59.3934 31.3982C63.1079 31.4466 64.8765 26.8464 62.0862 24.394L52.398 15.879C49.3019 13.1579 51.8475 8.09886 55.8778 8.96357L70.9692 12.2015L91.6373 18.118C94.7056 18.9963 97.5163 16.1041 96.5507 13.0622L93.9164 4.76389C93.8484 4.54994 93.7418 4.35031 93.6016 4.17495C92.3244 2.57675 94.2323 0.405834 95.9813 1.46722Z" fill="#74FFCC" stroke="black"/>
</svg>
