<svg width="212" height="222" viewBox="0 0 212 222" fill="none" xmlns="http://www.w3.org/2000/svg">
<path d="M84.6247 220.426L208.067 155.543C212.689 153.113 210.962 146.117 205.741 146.117H148.577C144.916 146.117 142.497 142.312 144.049 138.997L205.152 8.47842C207.565 3.32486 200.869 -1.21259 196.976 2.93844L139.275 64.4765C135.137 68.8896 128.18 63.5314 131.39 58.4036L147.641 32.4411C150.41 28.0182 145.403 22.8437 140.891 25.4648L3.57482 105.238C-0.14721 107.4 0.420939 112.942 4.50428 114.305L21.6208 120.014C25.1454 121.19 26.2018 125.663 23.5754 128.292L20.5483 131.321C19.4656 132.404 18.9393 133.924 19.1201 135.445L28.7659 216.59C29.065 219.106 31.1979 221 33.731 221H82.2984C83.1089 221 83.9073 220.803 84.6247 220.426Z" fill="#00ED89" stroke="#00ED89"/>
</svg>
