<svg width="177" height="149" viewBox="0 0 177 149" fill="none" xmlns="http://www.w3.org/2000/svg">
<path d="M44.2278 117.595L111.821 135.189C112.389 135.337 112.982 135.358 113.56 135.25L129.473 132.291C130.369 132.124 131.294 132.268 132.097 132.699L159.97 147.663C163.529 149.574 167.354 145.606 165.315 142.12L143.731 105.216C141.929 102.134 144.761 98.4135 148.211 99.3305L170.488 105.25C173.751 106.117 176.554 102.802 175.157 99.7286L148.371 40.8076C147.996 39.9823 147.352 39.309 146.544 38.8979L102.882 16.6831C102.286 16.3799 101.776 15.9322 101.398 15.3808L92.9363 3.04647C90.6063 -0.349967 85.2834 1.56713 85.654 5.66924L86.9526 20.0397C87.1832 22.5916 84.9887 24.6992 82.4482 24.3657L80.7409 24.1416C80.164 24.0658 79.6105 23.8651 79.1192 23.5535L57.4513 9.81115C53.7956 7.49262 49.575 11.8247 51.988 15.4187L69.1207 40.937C71.3059 44.1918 67.9908 48.3211 64.3406 46.891L25.9503 31.8503C25.7587 31.7753 25.5617 31.7151 25.3609 31.6704L3.91985 26.8937C1.81557 26.425 0.111504 28.6111 1.07976 30.5373C1.23748 30.8511 1.45815 31.129 1.72802 31.3537L54.1442 75.0005C56.9144 77.3073 55.4593 81.8136 51.8631 82.0646L43.3077 82.6617C39.1307 82.9533 38.1525 88.654 41.9935 90.3212L62.3884 99.1743C66.0248 100.753 65.3967 106.091 61.4933 106.782L44.5378 109.785C40.3091 110.534 40.0718 116.513 44.2278 117.595Z" fill="#00ED89" stroke="#00ED89"/>
</svg>
