<svg width="89" height="136" viewBox="0 0 89 136" fill="none" xmlns="http://www.w3.org/2000/svg">
<path d="M24.4911 12.9793L70.354 0.764356C73.0437 0.0480138 75.6245 2.2294 75.3662 5.00078L74.2354 17.1345C73.8958 20.7784 78.2227 22.9272 80.9207 20.4546L81.3617 20.0505C84.3028 17.3551 88.9449 20.1542 87.9336 24.0133L81.7136 47.751C81.48 48.6425 81.5614 49.5873 81.9441 50.4257L84.9362 56.9816C85.2186 57.6004 85.3386 58.281 85.2847 58.9591L84.5501 68.2092C84.4524 69.4399 82.8592 69.8602 82.1671 68.8378C81.6283 68.0419 80.4434 68.0811 79.9584 68.9109L42.5606 132.896C40.2891 136.782 34.324 134.536 35.1803 130.117L43.5424 86.9612C43.6833 86.2339 42.8859 85.6908 42.2607 86.0884C41.7876 86.3893 41.158 86.1538 40.9985 85.6163L40.9114 85.3229C40.7055 84.6288 39.8862 84.3327 39.284 84.7347L5.51223 107.279C5.14565 107.523 4.73074 107.686 4.29562 107.757C1.5433 108.201 -0.332604 105.047 1.37209 102.841L19.9024 78.8599C22.3274 75.7216 19.1981 71.3473 15.4448 72.6287L13.1547 73.4106C9.1603 74.7743 6.05064 69.8237 9.01328 66.8175L20.2811 55.3837C22.8886 52.7378 20.7952 48.2761 17.0936 48.5904L8.90202 49.2859C4.79483 49.6346 2.90861 44.2945 6.32363 41.9863L16.058 35.4065L31.6444 26.3383C34.403 24.7333 34.2633 20.7027 31.4003 19.2926L25.3256 16.3005C25.1483 16.2131 24.9565 16.1592 24.7597 16.1413C22.9661 15.9779 22.7508 13.4428 24.4911 12.9793Z" fill="#74FFCC" stroke="black"/>
</svg>
